#!OML:ASF E:\Steps\Project 1\Capture day 1\Session 2\Subject.ASF
:FULLY-SPECIFIED
:DEGREES
97
root -1.19288 19.5085 20.772 -155.792 -1.11587 181.191
lowerback -22.1606 -3.08532 -7.3092
upperback 1.22705 -2.32134 0.227466
thorax 14.2507 -1.68198 3.63567
lowerneck -1.46117 -9.25264 -1.41901
upperneck 20.7892 -11.9145 3.12871
head 6.86551 -5.12428 0.524848
rclavicle 2.38542e-015 -7.95139e-016
rhumerus -38.2046 -14.1237 -77.2827
rradius 47.9595
rwrist -11.4067
rhand -3.92523 -63.3454
rfingers 7.12502
rthumb 21.8258 -267.865
lclavicle 2.38542e-015 -7.95139e-016
lhumerus -34.4249 1.68264 75.7849
lradius 32.4739
lwrist 5.40949
lhand -22.4322 -10.2788
lfingers 7.12502
lthumb 3.99141 19.6635
rfemur -34.5267 2.9485 23.9757
rtibia 30.1893
rfoot -23.5005 2.3271
rtoes -9.87449
lfemur -31.5692 -11.0047 -19.4116
ltibia 26.0576
lfoot -16.506 3.14323
ltoes -17.1634
98
root -1.18794 19.5021 20.7712 -155.964 -1.03955 181.332
lowerback -22.0133 -3.01223 -7.28622
upperback 1.29485 -2.22725 0.167703
thorax 14.2303 -1.63377 3.58951
lowerneck -1.43185 -9.30523 -1.44042
upperneck 20.6686 -12.0316 3.34078
head 6.83967 -5.17359 0.589237
rclavicle -1.53064e-014 2.38542e-015
rhumerus -38.183 -14.2121 -77.2958
rradius 48.4461
rwrist -11.7402
rhand -3.92363 -62.0095
rfingers 7.12502
rthumb 21.8273 -269.201
lclavicle -1.53064e-014 2.38542e-015
lhumerus -34.3279 1.73756 75.4391
lradius 32.5829
lwrist 5.30787
lhand -22.3422 -10.3265
lfingers 7.12502
lthumb 4.07832 19.6142
rfemur -35.2567 2.25976 24.3023
rtibia 31.8131
rfoot -23.2332 3.18181
rtoes -11.8004
lfemur -31.5359 -10.9815 -19.2716
ltibia 26.4167
lfoot -16.7062 3.27
ltoes -17.0574
99
root -1.17938 19.4965 20.7718 -156.076 -1.12986 181.349
lowerback -21.7838 -3.06125 -7.39273
upperback 1.31004 -2.27618 0.123418
thorax 14.1249 -1.65888 3.58797
lowerneck -1.50839 -9.35882 -1.41704
upperneck 20.6493 -12.1273 3.38488
head 6.85084 -5.21806 0.588724
rclavicle -2.5842e-015 -3.97569e-014
rhumerus -38.1697 -14.1332 -77.3542
rradius 49.0074
rwrist -11.915
rhand -4.43487 -61.354
rfingers 7.12502
rthumb 21.3363 -269.801
lclavicle -2.5842e-015 -3.97569e-014
lhumerus -34.3816 1.79453 75.0609
lradius 32.8031
lwrist 5.21663
lhand -22.4064 -10.2789
lfingers 7.12502
lthumb 4.01636 19.6629
rfemur -36.0249 1.41069 24.5621
rtibia 33.4521
rfoot -23.0808 3.84886
rtoes -13.9224
lfemur -31.6107 -11.0497 -19.2072
ltibia 26.8434
lfoot -16.8824 3.2794
ltoes -17.276
100
root -1.17639 19.4771 20.7939 -155.306 -0.348735 181.784
lowerback -22.413 -3.02344 -7.1068
upperback 1.0728 -1.94821 0.138624
thorax 14.168 -1.35594 3.57762
lowerneck -1.53327 -9.3907 -1.34583
upperneck 20.4477 -12.1819 3.29042
head 6.78067 -5.26408 0.545883
rclavicle -6.75868e-015 -2.22639e-014
rhumerus -38.0518 -13.9214 -77.4096
rradius 49.6951
rwrist -11.9295
rhand -4.62958 -61.8801
rfingers 7.12502
rthumb 21.1493 -269.253
lclavicle -6.75868e-015 -2.22639e-014
lhumerus -34.4034 1.84338 74.7253
lradius 33.0246
lwrist 5.35067
lhand -22.3609 -10.1299
lfingers 7.12502
lthumb 4.06022 19.8112
rfemur -38.2386 1.16343 25.0997
rtibia 35.6829
rfoot -23.0745 4.70085
rtoes -17.5784
lfemur -32.9006 -10.4841 -18.7615
ltibia 27.6418
lfoot -17.2339 3.64101
ltoes -17.4555
101
root -1.17375 19.4702 20.7903 -155.492 -0.361675 181.963
lowerback -22.299 -3.05122 -7.1595
upperback 1.1621 -2 0.217979
thorax 14.2202 -1.39631 3.68055
lowerneck -1.43006 -9.35641 -1.43158
upperneck 19.9924 -12.1801 3.44426
head 6.63117 -5.28958 0.618887
rclavicle 2.16675e-014 4.77083e-015
rhumerus -37.9092 -13.6162 -77.4214
rradius 50.2735
rwrist -12.381
rhand -5.30101 -61.8532
rfingers 7.12502
rthumb 20.5042 -269.21
lclavicle 2.16675e-014 4.77083e-015
lhumerus -34.4447 1.87297 74.5146
lradius 33.2617
lwrist 5.54539
lhand -22.6275 -9.81346
lfingers 7.12502
lthumb 3.80279 20.1324
rfemur -38.8835 0.448525 25.3941
rtibia 37.2108
rfoot -23.1712 5.33956
rtoes -20.2709
lfemur -32.9177 -10.6078 -18.547
ltibia 28.1118
lfoot -17.4454 3.72897
ltoes -16.8962
102
root -1.16894 19.4615 20.7876 -155.659 -0.308643 182.159
lowerback -22.2385 -3.04907 -7.15213
upperback 1.28901 -2.01303 0.231547
thorax 14.3378 -1.41395 3.68533
lowerneck -1.4988 -9.28833 -1.46965
upperneck 19.7013 -12.1438 3.64111
head 6.5632 -5.28058 0.688873
rclavicle -8.34896e-015 1.90833e-014
rhumerus -37.6807 -13.4496 -77.4443
rradius 50.7906
rwrist -12.5722
rhand -5.60286 -61.7531
rfingers 7.12502
rthumb 20.2141 -269.279
lclavicle -8.34896e-015 1.90833e-014
lhumerus -34.3508 1.9726 74.1825
lradius 33.4095
lwrist 5.71555
lhand -23.05 -9.59682
lfingers 7.12502
lthumb 3.39486 20.3559
rfemur -39.7339 -0.0487842 25.6338
rtibia 39.0622
rfoot -23.1596 6.01628
rtoes -22.2983
lfemur -32.9022 -10.5949 -18.334
ltibia 28.4803
lfoot -17.6955 3.78216
ltoes -16.5832
103
root -1.16226 19.4533 20.7832 -155.767 -0.258755 182.335
lowerback -22.2169 -3.04843 -7.12938
upperback 1.36562 -2.01872 0.204057
thorax 14.4149 -1.41968 3.63724
lowerneck -1.6643 -9.32361 -1.41762
upperneck 19.7735 -12.2108 3.64655
head 6.61402 -5.30685 0.668062
rclavicle 9.14409e-015 -1.35174e-014
rhumerus -37.5343 -13.42 -77.4011
rradius 51.2357
rwrist -12.6424
rhand -5.2383 -61.2244
rfingers 7.12502
rthumb 20.5644 -269.845
lclavicle 9.14409e-015 -1.35174e-014
lhumerus -34.114 2.16302 73.7085
lradius 33.3753
lwrist 5.67953
lhand -22.8634 -9.72223
lfingers 7.12502
lthumb 3.57499 20.2275
rfemur -40.7199 -0.479113 25.8585
rtibia 41.0004
rfoot -23.1581 6.20586
rtoes -25.8802
lfemur -32.9794 -10.5681 -18.1268
ltibia 28.9124
lfoot -17.9704 3.85915
ltoes -17.426
